<svg id="图层_1" data-name="图层 1" xmlns="http://www.w3.org/2000/svg" viewBox="0 0 116.85 12.47"><path d="M239.27,424.21v-9.64h3.61a4.53,4.53,0,0,1,1.77.29,2.31,2.31,0,0,1,1,.9,2.41,2.41,0,0,1,.38,1.27,2.15,2.15,0,0,1-.34,1.17,2.37,2.37,0,0,1-1,.88,2.5,2.5,0,0,1,1.34.87,2.32,2.32,0,0,1,.47,1.46,2.83,2.83,0,0,1-.28,1.26,2.43,2.43,0,0,1-.71.9,3,3,0,0,1-1.05.48,6.87,6.87,0,0,1-1.56.16Zm1.27-5.59h2.09a4.82,4.82,0,0,0,1.21-.11,1.41,1.41,0,0,0,.74-.48,1.43,1.43,0,0,0,.24-.84,1.59,1.59,0,0,0-.23-.85,1.16,1.16,0,0,0-.66-.5,5.47,5.47,0,0,0-1.46-.13h-1.93Zm0,4.45h2.4a5.56,5.56,0,0,0,.87-.05,2.15,2.15,0,0,0,.74-.26,1.38,1.38,0,0,0,.48-.53,1.68,1.68,0,0,0,.19-.82,1.59,1.59,0,0,0-.27-.93,1.47,1.47,0,0,0-.77-.56,4.7,4.7,0,0,0-1.41-.16h-2.23Z" transform="translate(-239.27 -414.57)" style="fill:#040000"/><path d="M256.71,426.9l-.13-1.11a2.66,2.66,0,0,0,.68.1,1.28,1.28,0,0,0,.63-.13,1.06,1.06,0,0,0,.39-.37,6.93,6.93,0,0,0,.36-.88c0-.07.06-.16.1-.29l-2.64-7h1.27l1.45,4q.29.76.51,1.62a15.5,15.5,0,0,1,.49-1.59l1.49-4.07h1.18l-2.65,7.1a14.71,14.71,0,0,1-.67,1.58,2.34,2.34,0,0,1-.72.86,1.72,1.72,0,0,1-1,.27A2.57,2.57,0,0,1,256.71,426.9Z" transform="translate(-239.27 -414.57)" style="fill:#040000"/><path d="M284.57,424.21v-9.64h3.62a4.57,4.57,0,0,1,1.77.29,2.37,2.37,0,0,1,1.05.9,2.39,2.39,0,0,1,.37,1.27,2.23,2.23,0,0,1-.33,1.17,2.43,2.43,0,0,1-1,.88,2.5,2.5,0,0,1,1.34.87,2.38,2.38,0,0,1,.47,1.46,2.84,2.84,0,0,1-.29,1.26,2.41,2.41,0,0,1-.7.9,3,3,0,0,1-1.06.48,6.77,6.77,0,0,1-1.55.16Zm1.28-5.59h2.08a4.91,4.91,0,0,0,1.22-.11,1.28,1.28,0,0,0,1-1.32,1.59,1.59,0,0,0-.23-.85,1.19,1.19,0,0,0-.66-.5,5.56,5.56,0,0,0-1.47-.13h-1.92Zm0,4.45h2.4a5.56,5.56,0,0,0,.87-.05,2.09,2.09,0,0,0,.73-.26,1.4,1.4,0,0,0,.49-.53,1.8,1.8,0,0,0,.19-.82,1.53,1.53,0,0,0-.28-.93,1.44,1.44,0,0,0-.76-.56,4.7,4.7,0,0,0-1.41-.16h-2.23Z" transform="translate(-239.27 -414.57)" style="fill:#040000"/><path d="M301.63,420.72a3.61,3.61,0,0,1,1.08-2.88,3.28,3.28,0,0,1,2.2-.77,3.12,3.12,0,0,1,2.35.94,3.59,3.59,0,0,1,.91,2.61,4.63,4.63,0,0,1-.4,2.12,2.9,2.9,0,0,1-1.18,1.2,3.47,3.47,0,0,1-1.68.43,3.19,3.19,0,0,1-2.38-.94A3.77,3.77,0,0,1,301.63,420.72Zm1.22,0a3,3,0,0,0,.58,2,1.89,1.89,0,0,0,1.48.66,1.85,1.85,0,0,0,1.46-.67,3,3,0,0,0,.59-2,2.92,2.92,0,0,0-.59-2,2,2,0,0,0-2.94,0A3,3,0,0,0,302.85,420.72Z" transform="translate(-239.27 -414.57)" style="fill:#040000"/><path d="M318.18,424.21v-7h1.06v1a2.51,2.51,0,0,1,2.22-1.15,2.89,2.89,0,0,1,1.16.22,1.88,1.88,0,0,1,.8.6,2.35,2.35,0,0,1,.36.87,6.12,6.12,0,0,1,.07,1.15v4.3h-1.18V420a3.24,3.24,0,0,0-.14-1.08,1.13,1.13,0,0,0-.49-.57,1.49,1.49,0,0,0-.83-.22,1.92,1.92,0,0,0-1.3.48,2.35,2.35,0,0,0-.55,1.82v3.82Z" transform="translate(-239.27 -414.57)" style="fill:#040000"/><path d="M333.84,420.72a3.61,3.61,0,0,1,1.08-2.88,3.28,3.28,0,0,1,2.2-.77,3.12,3.12,0,0,1,2.35.94,3.59,3.59,0,0,1,.91,2.61,4.63,4.63,0,0,1-.4,2.12,2.9,2.9,0,0,1-1.18,1.2,3.44,3.44,0,0,1-1.68.43,3.16,3.16,0,0,1-2.37-.94A3.73,3.73,0,0,1,333.84,420.72Zm1.22,0a3,3,0,0,0,.58,2,1.89,1.89,0,0,0,1.48.66,1.85,1.85,0,0,0,1.46-.67,3,3,0,0,0,.59-2,2.92,2.92,0,0,0-.59-2,2,2,0,0,0-2.94,0A3,3,0,0,0,335.06,420.72Z" transform="translate(-239.27 -414.57)" style="fill:#040000"/><path d="M350.34,426.9l-.14-1.11a2.66,2.66,0,0,0,.68.1,1.28,1.28,0,0,0,.63-.13,1.06,1.06,0,0,0,.39-.37,5.64,5.64,0,0,0,.36-.88c0-.07.06-.16.11-.29l-2.65-7H351l1.46,4c.18.51.35,1.05.5,1.62a15.5,15.5,0,0,1,.49-1.59l1.49-4.07h1.18l-2.65,7.1a14.71,14.71,0,0,1-.67,1.58,2.34,2.34,0,0,1-.72.86,1.7,1.7,0,0,1-1,.27A2.51,2.51,0,0,1,350.34,426.9Z" transform="translate(-239.27 -414.57)" style="fill:#040000"/></svg>