<?xml version="1.0" encoding="utf-8"?>
<!-- Generator: Adobe Illustrator 24.0.0, SVG Export Plug-In . SVG Version: 6.00 Build 0)  -->
<svg version="1.1" id="图层_1" xmlns="http://www.w3.org/2000/svg" xmlns:xlink="http://www.w3.org/1999/xlink" x="0px" y="0px"
	 viewBox="0 0 987.65 613.7" style="enable-background:new 0 0 987.65 613.7;" xml:space="preserve">
<style type="text/css">
	.st0{fill:#36444B;}
</style>
<g>
	<path class="st0" d="M663.48,239.2h223.01v-60.82l-32.44-17.03v9.73h-84.34v-21.9l-35.68-20.27v50.28h120.02v47.85H662.67
		l-41.36-29.19c0,0,0,137.05,0,156.51s-4.05,52.71-25.14,91.64c-21.08,38.92-63.25,51.9-50.28,51.9
		c60.82,0,117.59-80.28,117.59-184.89C663.48,261.91,663.48,239.2,663.48,239.2z"/>
	<polygon class="st0" points="720.25,311.78 672.81,311.78 672.81,321.92 720.25,321.92 720.25,370.98 668.35,370.98 668.35,381.11 
		720.25,381.11 720.25,431.8 653.75,431.8 653.75,441.93 720.25,441.93 720.25,528.3 753.09,489.37 753.09,285.83 720.25,264.75 	
		"/>
	<polygon class="st0" points="914.05,441.93 895.41,415.58 877.16,431.8 828.1,431.8 828.1,381.11 890.94,381.11 872.3,354.76 
		854.05,370.98 828.1,370.98 828.1,321.92 890.94,321.92 872.3,295.56 854.05,311.78 828.1,311.78 828.1,285.83 795.26,264.75 
		795.26,528.3 828.1,489.37 828.1,441.93 	"/>
	<path class="st0" d="M429.25,360.84H257.83v-70.62h-16.55v70.62H73.6v10.14h142.66c-5.81,15.33-25.8,61.15-64.86,84.89
		c-14.02,8.52-29.03,15.4-44.49,20.87c-7.36,2.6-15.84,3.18-22.76,6.86c1.84,3.35,9.07,3.66,12.5,3.91
		c5.47,0.39,10.95,0.16,16.42-0.05c14.07-0.53,28.05-3.03,41.65-6.59c48.13-12.63,74.51-60.68,86.56-90.54v133.39h16.55V370.98
		h208.31l-18.64-26.36L429.25,360.84z"/>
	<polygon class="st0" points="316.46,309.8 431.92,309.8 413.28,283.45 395.04,299.67 316.46,299.67 316.46,219.27 409.11,219.27 
		409.11,209.13 316.46,209.13 316.46,138.15 283.36,138.15 283.36,309.8 299.91,309.8 	"/>
	<polygon class="st0" points="130.81,309.8 169.5,309.8 202.59,309.8 224.4,309.8 224.4,299.67 202.59,299.67 202.59,219.27 
		249.55,219.27 249.55,209.13 202.59,209.13 202.59,138.15 169.5,138.15 169.5,299.67 130.81,299.67 130.81,223.97 114.26,223.97 
		114.26,299.67 93.77,299.67 93.77,309.8 114.26,309.8 	"/>
	<path class="st0" d="M417.38,468.82c-5.86-1.32-11.68-2.81-17.44-4.54c-15.82-4.74-31.54-11.04-45.17-20.49
		c-4.74-3.29-9.22-6.98-13.18-11.18c-24.74-26.25-28.51-43.16-28.51-43.16l-26.1-0.18c0,0,1.91,34.51,45.31,66.75
		c13.81,10.25,30.5,15.91,47.42,18.21c8.49,1.15,17.09,1.49,25.65,1.15c4.34-0.17,8.64-0.86,12.98-1.03
		c3.24-0.12,7.67-1.06,8.84-1.85C429.63,470.31,420.78,469.58,417.38,468.82z"/>
</g>
</svg>
