<?xml version="1.0" standalone="no"?><!DOCTYPE svg PUBLIC "-//W3C//DTD SVG 1.1//EN" "http://www.w3.org/Graphics/SVG/1.1/DTD/svg11.dtd"><svg t="1621338464692" class="icon" viewBox="0 0 1024 1024" version="1.1" xmlns="http://www.w3.org/2000/svg" p-id="946" xmlns:xlink="http://www.w3.org/1999/xlink" width="200" height="200"><defs><style type="text/css"></style></defs><path d="M510.47 114.16c54.03 0 106.41 10.57 155.67 31.4 47.62 20.14 90.41 49 127.17 85.76 36.76 36.76 65.61 79.55 85.76 127.17 20.84 49.26 31.4 101.64 31.4 155.67s-10.57 106.41-31.4 155.67c-20.14 47.62-48.99 90.41-85.76 127.17-36.76 36.76-79.55 65.61-127.17 85.76-49.26 20.84-101.64 31.4-155.67 31.4s-106.41-10.57-155.67-31.4c-47.62-20.14-90.41-48.99-127.17-85.76-36.76-36.76-65.61-79.55-85.76-127.17-20.84-49.26-31.4-101.64-31.4-155.67s10.57-106.41 31.4-155.67c20.14-47.62 49-90.41 85.76-127.17 36.76-36.76 79.55-65.61 127.17-85.76 49.26-20.84 101.63-31.4 155.67-31.4m0-80c-265.1 0-480 214.9-480 480s214.9 480 480 480 480-214.9 480-480-214.91-480-480-480z" fill="#7F7F7F" p-id="947"></path><path d="M707.26 631.17l-173.17-99.98V329.95c0-22.09-17.91-40-40-40s-40 17.91-40 40V553c0 0.17 0.01 0.34 0.01 0.51-0.26 14.08 6.93 27.88 19.99 35.42l193.16 111.52c19.13 11.05 43.6 4.49 54.64-14.64 11.06-19.14 4.5-43.6-14.63-54.64z" fill="#7F7F7F" p-id="948"></path></svg>