<?xml version="1.0" encoding="utf-8"?>
<!-- Generator: Adobe Illustrator 24.0.0, SVG Export Plug-In . SVG Version: 6.00 Build 0)  -->
<svg version="1.1" id="图层_1" xmlns="http://www.w3.org/2000/svg" xmlns:xlink="http://www.w3.org/1999/xlink" x="0px" y="0px"
	 viewBox="0 0 789.29 870.66" style="enable-background:new 0 0 789.29 870.66;" xml:space="preserve">
<style type="text/css">
	.st0{fill:#36444B;}
</style>
<g>
	<path class="st0" d="M256.49,311.99h334.84v-91.32l-48.7-25.57v14.61H416v-32.88l-53.57-30.44v75.49h180.21v71.84H255.27
		l-62.1-43.83c0,0,0,205.78,0,235c0,29.22-6.09,79.14-37.75,137.59c-31.66,58.45-94.97,77.93-75.49,77.93
		c91.32,0,176.55-120.54,176.55-277.61C256.49,346.08,256.49,311.99,256.49,311.99z"/>
	<polygon class="st0" points="341.72,420.97 270.49,420.97 270.49,436.19 341.72,436.19 341.72,509.85 263.8,509.85 263.8,525.07 
		341.72,525.07 341.72,601.17 241.88,601.17 241.88,616.39 341.72,616.39 341.72,746.07 391.04,687.62 391.04,382 341.72,350.34 	
		"/>
	<polygon class="st0" points="632.71,616.39 604.73,576.82 577.33,601.17 503.66,601.17 503.66,525.07 598.01,525.07 570.02,485.5 
		542.63,509.85 503.66,509.85 503.66,436.19 598.01,436.19 570.02,396.61 542.63,420.97 503.66,420.97 503.66,382 454.35,350.34 
		454.35,746.07 503.66,687.62 503.66,616.39 	"/>
</g>
</svg>
