<?xml version="1.0" standalone="no"?><!DOCTYPE svg PUBLIC "-//W3C//DTD SVG 1.1//EN" "http://www.w3.org/Graphics/SVG/1.1/DTD/svg11.dtd"><svg t="1621338065374" class="icon" viewBox="0 0 1095 1024" version="1.1" xmlns="http://www.w3.org/2000/svg" p-id="1044" xmlns:xlink="http://www.w3.org/1999/xlink" width="213.8671875" height="200"><defs><style type="text/css"></style></defs><path d="M547.630103 1023.999746a100.798915 100.798915 0 0 1-62.819172-21.799598c-14.533065-11.129905-284.84807-219.945825-395.820131-394.512154C51.447049 549.071299 0 468.642896 0 353.274583 0 158.483072 146.614402 0 326.824406 0c81.591048 0 161.074802 34.019483 220.817808 92.926838C607.796992 33.365495 685.924326 0.024222 768.447912 0.024222c180.210003 0 326.824406 158.483072 326.824406 353.274583 0 115.344091-51.471271 195.784605-89.063466 254.522408-110.645067 172.51959-379.482544 381.856278-395.614245 394.294159a100.871581 100.871581 0 0 1-62.964504 21.884374zM326.824406 86.677621c-132.432553 0-240.171007 119.607123-240.171007 266.621184 0 90.008115 41.806783 155.334241 75.390273 207.810716C265.761312 724.255284 534.75623 931.375679 537.408514 933.361865l0.847763 0.653988a14.860059 14.860059 0 0 0 18.747653 0l0.859873-0.653988c2.628063-1.974075 271.586648-210.450889 375.437507-372.288677 33.559269-52.452253 75.366052-117.778379 75.366052-207.774383 0-147.014061-107.786897-266.621185-240.171006-266.621184-71.841784 0-139.662753 35.76345-186.059562 98.098187l-34.93991 46.966021-34.758247-47.123463c-45.815487-62.23785-113.575901-97.940746-185.914231-97.940745z" p-id="1045"></path></svg>