<svg id="图层_1" data-name="图层 1" xmlns="http://www.w3.org/2000/svg" viewBox="0 0 88.83 79.61"><path d="M261.31,408.72h8l-.19,2v1.76H253.47v-1.76l-.19-2Zm0-23.3h8v3.52H253.47v-3.52Zm.19,48.75h4.11v9.6q0,9.6-.19,10.77a13.92,13.92,0,0,1-.78,2.15,13.39,13.39,0,0,1-1.28,1.77,6.64,6.64,0,0,1-2.05,1.46,5.76,5.76,0,0,1-2.55.69h-1.37V434.17Zm28.39-51.69H294v8h5.48l5.29-.2.19-3.91.2-3.92h8.22v8H323V394h-4.7c-3.27,0-4.9.2-4.9.59a12,12,0,0,1-.39,1.57,9.56,9.56,0,0,1-.78,2.44,6.61,6.61,0,0,1-1.57,2.16,9,9,0,0,1-2,1.37,5.13,5.13,0,0,1-2.35.49H305v-4.31l-.19-4.11-5.29-.2H294v.79c-.27.91-.46,1.63-.59,2.15a15.33,15.33,0,0,1-.78,2,18.54,18.54,0,0,0-1.18,1.76,17,17,0,0,1-2,1.37,5.61,5.61,0,0,1-2.54.59h-1.37V394h-8.81v-3.52h8.81v-3.92a35.4,35.4,0,0,1,.09-4A34.36,34.36,0,0,1,289.89,382.48Zm10.19,24.28H323v3.72h-5.88l-5.68.2v.78a3,3,0,0,0-.29,1.37c-.07.78-.1,1.44-.1,2-.13,1.44-.26,2.48-.39,3.13l-.19,1h2.15c1.3,0,2-.13,2-.39s1.43-.39,4.31-.39H323V435q0,16.85-.2,18.21a13,13,0,0,1-.78,2.15,17,17,0,0,1-1.37,2,8,8,0,0,1-2.25,1.57,5.87,5.87,0,0,1-2.45.58h-1.18l-.19-18.4V422.62h-4.9l-.19,1c-.14.52-.4,1.37-.79,2.55l-.58,1.76,1,1c.52.78,1.18,1.89,2,3.33s1.57,2.67,2.35,4.11l1,2.15-1.76,2.74a14.43,14.43,0,0,1-2,2.75q-.19,0-.39-.69c-.13-.46-.26-1-.39-1.66a42.44,42.44,0,0,0-1.57-4.9c-.65-1.69-1.11-2.87-1.37-3.52l-.39-1-1.37,2.35c-.78,1.56-1.5,2.87-2.16,3.91a14.11,14.11,0,0,1-1.95,2.55,3.14,3.14,0,0,1-1.57,1.17,2.57,2.57,0,0,0-1.17,1.18l-.59.59c-.13,0-.39-.85-.79-2.55s-1-3.33-1.37-4.5c-.52-1.44-1-2.61-1.37-3.53l-.58-1.17-.79,1.56a18,18,0,0,1-1.76,3.14c-.39.65-1.05,1.69-2,3.13A8,8,0,0,1,287,442.2l-.79.39v4.7a53.63,53.63,0,0,1-.19,6.07,6.6,6.6,0,0,1-1,2.16,5.72,5.72,0,0,1-1.27,1.86,8.67,8.67,0,0,1-2,1.47,5.07,5.07,0,0,1-2.45.58l-1.37.2V418.12h4.11q4.11,0,4.11.39c0,.26,1,.39,3,.39s3.07-.2,3.13-.59.16-1.76.3-4.11l.19-3.52-8-.2H277v-1.57c-.13-1-.13-1.63,0-1.76S284.67,406.76,300.08,406.76Zm-11,15.86a8.52,8.52,0,0,0-2.74.2c-.13.13-.2,2.93-.2,8.42l.2,8a17.75,17.75,0,0,0,1.18-2.55,28,28,0,0,0,1.95-5.29,33.92,33.92,0,0,0,1.57-5.28,4.35,4.35,0,0,1,.2-1.28c.12-.45.26-1,.39-1.66a.39.39,0,0,0-.2-.59Zm11.55,0c-2.48,0-3.78.13-3.91.39l-.78,2.55-.59,2.15,1.37,2.16c.78,1.17,1.63,2.61,2.54,4.3l1.37,2,.2-.39c.13-.26.52-1.3,1.18-3.13s1.17-3.72,1.56-5.29.65-2.94.79-3.72l.19-1ZM302,410.68h-3.53l-.19,1.95c-.14,1.57-.27,2.75-.4,3.53a11,11,0,0,1-.19,2.15l-.2.59h3.92c2.48,0,3.72-.06,3.72-.2a14,14,0,0,1,.1-1.66,16.41,16.41,0,0,0,.09-1.66c.13-2.35.2-3.72.2-4.12l-.2-.58Z" transform="translate(-253.28 -381)" style="fill:#040000"/><path d="M333.63,381H339v.82h-.75a1.93,1.93,0,0,1,.63.67,1.9,1.9,0,0,1,.24,1,1.72,1.72,0,0,1-.25,1,1.25,1.25,0,0,1-.69.54,1.93,1.93,0,0,1,.94,1.66,1.67,1.67,0,0,1-.44,1.24,1.94,1.94,0,0,1-1.37.43h-3.69v-.91H337a2.49,2.49,0,0,0,.79-.09.74.74,0,0,0,.38-.32,1,1,0,0,0,.15-.55,1.24,1.24,0,0,0-.38-.94,1.65,1.65,0,0,0-1.21-.38h-3.12v-.91h3.49A1.56,1.56,0,0,0,338,384a.86.86,0,0,0,.3-.73,1.33,1.33,0,0,0-.2-.71,1.17,1.17,0,0,0-.59-.48,3.31,3.31,0,0,0-1.13-.15h-2.79Z" transform="translate(-253.28 -381)" style="fill:#040000"/><path d="M334.29,399a3.46,3.46,0,0,1-.61-1,2.77,2.77,0,0,1-.17-1,2,2,0,0,1,.43-1.37,1.42,1.42,0,0,1,1.11-.47,1.48,1.48,0,0,1,.72.18,1.39,1.39,0,0,1,.52.47,2,2,0,0,1,.3.65,5.43,5.43,0,0,1,.14.81,8.73,8.73,0,0,0,.31,1.63h.24a1,1,0,0,0,.79-.26,1.56,1.56,0,0,0,.31-1,1.6,1.6,0,0,0-.23-.95,1.29,1.29,0,0,0-.8-.45l.12-.9a2.28,2.28,0,0,1,.93.4,1.78,1.78,0,0,1,.54.81,3.51,3.51,0,0,1,.19,1.22,3.2,3.2,0,0,1-.16,1.12,1.48,1.48,0,0,1-.41.64,1.42,1.42,0,0,1-.62.28,5.28,5.28,0,0,1-.84,0h-1.22a12.6,12.6,0,0,0-1.61.06,2.14,2.14,0,0,0-.64.23v-.95A1.88,1.88,0,0,1,334.29,399Zm2-.08a6.69,6.69,0,0,1-.35-1.49,3.09,3.09,0,0,0-.18-.79.81.81,0,0,0-.29-.36.81.81,0,0,0-1.05.15,1.18,1.18,0,0,0-.24.8,1.9,1.9,0,0,0,.23.94,1.31,1.31,0,0,0,.63.6,2.17,2.17,0,0,0,.91.15Z" transform="translate(-253.28 -381)" style="fill:#040000"/><path d="M333.63,407.05H339v.82h-.76a2,2,0,0,1,.88,1.72,2.35,2.35,0,0,1-.17.89,1.35,1.35,0,0,1-.46.61,1.82,1.82,0,0,1-.68.29,5.52,5.52,0,0,1-.88.05h-3.31v-.91h3.27a2.54,2.54,0,0,0,.84-.11.9.9,0,0,0,.44-.38,1.18,1.18,0,0,0,.16-.63,1.47,1.47,0,0,0-.37-1,1.83,1.83,0,0,0-1.4-.42h-2.94Z" transform="translate(-253.28 -381)" style="fill:#040000"/><polygon points="86.82 16.79 88.34 15.27 88.83 15.76 87.8 16.79 88.83 17.82 88.34 18.3 86.82 16.79" style="fill:#040000"/></svg>