<?xml version="1.0" standalone="no"?><!DOCTYPE svg PUBLIC "-//W3C//DTD SVG 1.1//EN" "http://www.w3.org/Graphics/SVG/1.1/DTD/svg11.dtd"><svg t="1621338448898" class="icon" viewBox="0 0 1596 1024" version="1.1" xmlns="http://www.w3.org/2000/svg" p-id="1038" xmlns:xlink="http://www.w3.org/1999/xlink" width="311.71875" height="200"><defs><style type="text/css"></style></defs><path d="M68.86386 1024a69.050483 69.050483 0 0 1-65.114436-91.139851c34.542207-101.607701 122.017463-295.712511 319.837766-454.25717 241.031993-193.171695 505.917789-232.141955 626.476199-248.225459V68.999586a68.897791 68.897791 0 0 1 113.890883-52.152625l508.615339 438.835329a68.880826 68.880826 0 0 1 0 104.305251L1064.022135 998.822871a68.880826 68.880826 0 0 1-113.958746-52.152626v-159.477774c-132.841593 9.382044-553.269115 52.033865-845.67331 226.899548a69.118346 69.118346 0 0 1-35.526219 9.907981z m-12.622496-90.613914z m987.863015-809.604188v128.549265a69.135312 69.135312 0 0 1-59.66844 68.27006l-13.267193 1.696572c-108.410955 14.353-362.269033 47.979058-588.8123 229.5462-143.631791 115.197243-222.997432 250.855145-264.953659 347.49189 131.653992-68.219163 293.065858-121.71208 480.995145-159.308117 172.660139-34.542207 318.395679-45.31544 373.0253-48.284441a68.86386 68.86386 0 0 1 72.681147 68.779032v131.416472l445.078715-384.103915z" p-id="1039"></path></svg>