<svg id="图层_1" data-name="图层 1" xmlns="http://www.w3.org/2000/svg" viewBox="0 0 236.85 83.22"><path d="M194.15,402.89h4.3v7.64c0,5.09-.09,8.41-.29,10a26.86,26.86,0,0,1-.88,4.31,32.25,32.25,0,0,1-1.57,4.11c-.78,1.57-1.5,2.87-2.15,3.92a23.46,23.46,0,0,1-2.55,3.62,29.36,29.36,0,0,1-3.13,3.23c-1.17.78-2.22,1.5-3.13,2.16a12,12,0,0,1-3.33,1.95,10.57,10.57,0,0,1-2,1.18c-.13,0-.2-.59-.2-1.76v-1.57l1.18-.78a20.57,20.57,0,0,0,2.45-2,21.28,21.28,0,0,0,2.44-2.74c.79-1.05,1.5-2.09,2.16-3.14q.58-1.56,1.17-3.33a15,15,0,0,0,1-3.32q.39-2,.39-12.73V402.89Zm21.14-23.7h4.12V416q0,36.81-.49,38.28c-.33,1-.76,2.06-1.28,3.23a12.54,12.54,0,0,1-1.56,2.74,7,7,0,0,1-1.57,1.47,3.65,3.65,0,0,1-2.15.69H211V379.19ZM229,402.5l1.57.78a17,17,0,0,1,3.42,2.06,42.42,42.42,0,0,1,4,3.62,46.29,46.29,0,0,1,3.91,4.5,37.55,37.55,0,0,1,2.94,3.92q1.37,2,3.14,4.89t3.52,6.27q1.56,3.33,2,4.31l.39,1h-.59q-.19,0-6.07.58l-5.48.4a18.32,18.32,0,0,1-1-3.33c-.91-3.14-1.57-5.16-2-6.07q-1-3.14-2-5.88a60,60,0,0,0-2.93-6.46,36.82,36.82,0,0,0-2.45-4.8,18.28,18.28,0,0,0-2.25-2.84l-1.37-1.37.58-.78C228.67,402.76,228.87,402.5,229,402.5Z" transform="translate(-179.26 -379.19)" style="fill:#040000"/><path d="M335.32,408h8l-.2,2v1.76H327.49v-1.76l-.2-2Zm0-23.3h8v3.52H327.49v-3.52Zm.2,48.76h4.11V443q0,9.6-.2,10.77a13,13,0,0,1-.78,2.15,12.72,12.72,0,0,1-1.27,1.77,6.69,6.69,0,0,1-2.06,1.46,5.72,5.72,0,0,1-2.55.69H331.4V433.44Zm28.39-51.7H368v8h5.48l5.29-.2.2-3.91.19-3.92h8.23v8H397v3.52h-4.7c-3.26,0-4.89.2-4.89.59a10.85,10.85,0,0,1-.4,1.57,9.56,9.56,0,0,1-.78,2.44,6.48,6.48,0,0,1-1.56,2.16,8.86,8.86,0,0,1-2,1.37,5.19,5.19,0,0,1-2.35.49H379V397.6l-.2-4.11-5.29-.2H368v.79c-.26.91-.46,1.63-.59,2.15a15.33,15.33,0,0,1-.78,2,20.67,20.67,0,0,0-1.17,1.76,18.91,18.91,0,0,1-2,1.37,5.69,5.69,0,0,1-2.55.59H359.6v-8.62h-8.81v-3.52h8.81v-3.92a31.22,31.22,0,0,1,.1-4A34.22,34.22,0,0,1,363.91,381.74ZM374.09,406H397v3.72h-5.87l-5.68.2v.78a2.91,2.91,0,0,0-.29,1.37c-.07.78-.1,1.44-.1,2-.13,1.44-.27,2.48-.39,3.13l-.2,1h2.15c1.31,0,2-.13,2-.39s1.44-.39,4.31-.39H397v16.84q0,16.84-.19,18.21a13.8,13.8,0,0,1-.79,2.15,17,17,0,0,1-1.37,2,7.72,7.72,0,0,1-2.25,1.57,5.86,5.86,0,0,1-2.45.59h-1.17l-.2-18.41V421.88h-4.89l-.2,1q-.19.78-.78,2.55l-.59,1.76,1,1c.52.78,1.17,1.89,2,3.33s1.56,2.67,2.35,4.11l1,2.15-1.77,2.74a14.72,14.72,0,0,1-1.95,2.75c-.14,0-.27-.23-.4-.69s-.26-1-.39-1.66a42.32,42.32,0,0,0-1.56-4.9c-.66-1.69-1.12-2.87-1.38-3.52l-.39-1-1.37,2.35c-.78,1.56-1.5,2.87-2.15,3.91a14.58,14.58,0,0,1-2,2.55,3,3,0,0,1-1.57,1.17,2.62,2.62,0,0,0-1.17,1.18l-.59.59q-.19,0-.78-2.55c-.52-1.83-1-3.33-1.37-4.5-.53-1.44-1-2.61-1.37-3.53l-.59-1.17-.78,1.56a18,18,0,0,1-1.77,3.14c-.39.65-1,1.69-1.95,3.13a8.17,8.17,0,0,1-2.16,2.15l-.78.4v4.69a53,53,0,0,1-.2,6.08,6.43,6.43,0,0,1-1,2.15,5.57,5.57,0,0,1-1.27,1.86,8.45,8.45,0,0,1-2,1.47,5,5,0,0,1-2.45.59l-1.37.19V417.38h4.12q4.11,0,4.11.39t3,.39c2,0,3.07-.19,3.14-.59s.16-1.76.29-4.11l.2-3.52-8-.2H351v-1.56q-.21-1.57,0-1.77Q351,406,374.09,406Zm-11,15.86a8.61,8.61,0,0,0-2.75.2q-.19.19-.19,8.42l.19,8a17.75,17.75,0,0,0,1.18-2.55,28.71,28.71,0,0,0,2-5.29,35,35,0,0,0,1.56-5.28,4.77,4.77,0,0,1,.2-1.28c.13-.45.26-1,.39-1.66a.39.39,0,0,0-.19-.59Zm11.55,0c-2.48,0-3.79.13-3.92.39l-.78,2.55-.59,2.15,1.37,2.16c.79,1.17,1.63,2.61,2.55,4.31l1.37,1.95.19-.39c.13-.26.52-1.3,1.18-3.13s1.17-3.72,1.57-5.29.65-2.94.78-3.72l.2-1Zm1.37-11.94h-3.53l-.19,2c-.13,1.56-.26,2.74-.39,3.52a11,11,0,0,1-.2,2.15l-.19.59h3.91c2.48,0,3.72-.06,3.72-.19a14.2,14.2,0,0,1,.1-1.67,16.55,16.55,0,0,0,.1-1.66c.13-2.35.19-3.72.19-4.11l-.19-.59Z" transform="translate(-179.26 -379.19)" style="fill:#040000"/><path d="M259.93,379.65l2.8,2,2.59-1.82v1.14l-1.26.83-.61.37.59.41,1.28.91v1.09l-2.54-1.86-2.85,2v-1.12l1.68-1.1.45-.3-2.13-1.41Z" transform="translate(-179.26 -379.19)" style="fill:#040000"/><path d="M259.93,391.27h5.39v.92h-5.39Zm6.39,0h1.05v.92h-1.05Z" transform="translate(-179.26 -379.19)" style="fill:#040000"/><path d="M260.6,402.9a3.43,3.43,0,0,1-.61-1,2.83,2.83,0,0,1-.18-1,1.93,1.93,0,0,1,.44-1.36,1.4,1.4,0,0,1,1.1-.48,1.49,1.49,0,0,1,.73.18,1.57,1.57,0,0,1,.52.47,2.34,2.34,0,0,1,.3.66,7.16,7.16,0,0,1,.14.81,8,8,0,0,0,.31,1.63h.24a1,1,0,0,0,.78-.26,1.5,1.5,0,0,0,.31-1,1.63,1.63,0,0,0-.22-.95,1.42,1.42,0,0,0-.8-.45l.12-.89a2.21,2.21,0,0,1,.93.4,1.77,1.77,0,0,1,.54.8,3.53,3.53,0,0,1,.19,1.23,3.2,3.2,0,0,1-.16,1.12,1.6,1.6,0,0,1-.41.63,1.42,1.42,0,0,1-.62.28,5.11,5.11,0,0,1-.84.05h-1.22a12.49,12.49,0,0,0-1.61.06,2,2,0,0,0-.65.23v-1A1.88,1.88,0,0,1,260.6,402.9Zm2-.07a6.69,6.69,0,0,1-.35-1.49,3.2,3.2,0,0,0-.18-.8.77.77,0,0,0-.3-.36.79.79,0,0,0-1,.15,1.19,1.19,0,0,0-.24.81,1.85,1.85,0,0,0,.23.94,1.4,1.4,0,0,0,.63.6,2.14,2.14,0,0,0,.91.15Z" transform="translate(-179.26 -379.19)" style="fill:#040000"/><path d="M262.63,410.64a2.79,2.79,0,0,1,2.21.83,2.5,2.5,0,0,1,.6,1.69,2.41,2.41,0,0,1-.73,1.82,2.75,2.75,0,0,1-2,.7,3.5,3.5,0,0,1-1.63-.31,2.21,2.21,0,0,1-.93-.91,2.62,2.62,0,0,1-.33-1.3,2.38,2.38,0,0,1,.73-1.82A2.87,2.87,0,0,1,262.63,410.64Zm0,.94a2.29,2.29,0,0,0-1.55.45,1.49,1.49,0,0,0,0,2.26,2.35,2.35,0,0,0,1.58.45,2.23,2.23,0,0,0,1.51-.45,1.51,1.51,0,0,0,0-2.26A2.28,2.28,0,0,0,262.63,411.58Z" transform="translate(-179.26 -379.19)" style="fill:#040000"/><polygon points="87.14 22.45 88.66 20.94 89.15 21.43 88.12 22.45 89.15 23.48 88.66 23.97 87.14 22.45" style="fill:#040000"/><path d="M407.64,380.26H413v.82h-.75a2,2,0,0,1,.64.67,1.9,1.9,0,0,1,.24,1,1.8,1.8,0,0,1-.25,1,1.3,1.3,0,0,1-.7.54,1.94,1.94,0,0,1,.95,1.66,1.64,1.64,0,0,1-.45,1.24,1.91,1.91,0,0,1-1.36.43h-3.7v-.91H411a2.45,2.45,0,0,0,.79-.09.81.81,0,0,0,.39-.32,1,1,0,0,0,.15-.55,1.27,1.27,0,0,0-.38-.94,1.67,1.67,0,0,0-1.21-.38h-3.13v-.91h3.5a1.53,1.53,0,0,0,.91-.22.85.85,0,0,0,.31-.73,1.26,1.26,0,0,0-.21-.71,1.13,1.13,0,0,0-.59-.48,3.31,3.31,0,0,0-1.13-.15h-2.79Z" transform="translate(-179.26 -379.19)" style="fill:#040000"/><path d="M408.3,398.24a3.28,3.28,0,0,1-.6-1,2.77,2.77,0,0,1-.18-1,2,2,0,0,1,.43-1.37,1.46,1.46,0,0,1,1.11-.47,1.48,1.48,0,0,1,.72.18,1.42,1.42,0,0,1,.53.47,2.28,2.28,0,0,1,.3.65,7.51,7.51,0,0,1,.13.82,8.59,8.59,0,0,0,.32,1.62h.24a1,1,0,0,0,.78-.26,1.5,1.5,0,0,0,.31-1,1.61,1.61,0,0,0-.22-.95,1.32,1.32,0,0,0-.8-.45l.12-.9a2.23,2.23,0,0,1,.92.4,1.8,1.8,0,0,1,.55.81,3.76,3.76,0,0,1,.19,1.22,3.14,3.14,0,0,1-.17,1.12,1.24,1.24,0,0,1-1,.92,5.17,5.17,0,0,1-.85,0H409.9a16,16,0,0,0-1.61.05,2.19,2.19,0,0,0-.65.23v-.95A2.13,2.13,0,0,1,408.3,398.24Zm2-.08a6.78,6.78,0,0,1-.34-1.49,4.31,4.31,0,0,0-.18-.79.77.77,0,0,0-.3-.36.79.79,0,0,0-1,.15,1.13,1.13,0,0,0-.25.8,1.9,1.9,0,0,0,.23.94,1.45,1.45,0,0,0,.64.61,2.34,2.34,0,0,0,.91.14Z" transform="translate(-179.26 -379.19)" style="fill:#040000"/><path d="M407.64,406.31H413v.83h-.76a1.93,1.93,0,0,1,.89,1.71,2.18,2.18,0,0,1-.18.89,1.44,1.44,0,0,1-.46.62,1.93,1.93,0,0,1-.67.28,5.77,5.77,0,0,1-.89.05h-3.31v-.91h3.28a2.43,2.43,0,0,0,.83-.11.9.9,0,0,0,.44-.38,1.19,1.19,0,0,0,.17-.63,1.51,1.51,0,0,0-.37-1,1.85,1.85,0,0,0-1.41-.42h-2.94Z" transform="translate(-179.26 -379.19)" style="fill:#040000"/><polygon points="234.85 17.86 236.36 16.34 236.85 16.83 235.83 17.86 236.85 18.88 236.36 19.37 234.85 17.86" style="fill:#040000"/></svg>