<svg id="图层_1" data-name="图层 1" xmlns="http://www.w3.org/2000/svg" viewBox="0 0 88.1 83.22"><path d="M268.52,402.89h4.31v7.64c0,5.09-.1,8.41-.29,10a25.79,25.79,0,0,1-.89,4.31,32.13,32.13,0,0,1-1.56,4.11c-.79,1.57-1.5,2.87-2.16,3.92a23.36,23.36,0,0,1-2.54,3.62,30.3,30.3,0,0,1-3.13,3.23c-1.18.78-2.23,1.5-3.14,2.16a11.7,11.7,0,0,1-3.33,1.95,10.7,10.7,0,0,1-1.95,1.18c-.14,0-.2-.59-.2-1.76v-1.57l1.17-.78a19.8,19.8,0,0,0,2.45-2,20.6,20.6,0,0,0,2.45-2.74c.78-1.05,1.5-2.09,2.15-3.14.4-1,.79-2.15,1.18-3.33a15,15,0,0,0,1-3.32q.39-2,.39-12.73V402.89Zm21.15-23.7h4.11V416q0,36.81-.49,38.28c-.33,1-.75,2.06-1.27,3.23a12.52,12.52,0,0,1-1.57,2.74,6.92,6.92,0,0,1-1.56,1.47,3.68,3.68,0,0,1-2.16.69h-1.37V379.19Zm13.71,23.31,1.56.78a16.78,16.78,0,0,1,3.43,2.06,41.28,41.28,0,0,1,4,3.62,46.33,46.33,0,0,1,3.92,4.5,40.66,40.66,0,0,1,2.94,3.92c.91,1.31,2,2.94,3.13,4.89s2.35,4.05,3.53,6.27,1.69,3.66,2,4.31l.39,1h-.58c-.13,0-2.16.19-6.07.58l-5.49.4a18.85,18.85,0,0,1-1-3.33q-1.38-4.71-2-6.07-1-3.14-2-5.88a60,60,0,0,0-2.94-6.46,34.47,34.47,0,0,0-2.45-4.8,17.17,17.17,0,0,0-2.25-2.84l-1.37-1.37.59-.78C303.05,402.76,303.24,402.5,303.38,402.5Z" transform="translate(-253.64 -379.19)" style="fill:#040000"/><path d="M334.31,379.65l2.8,2,2.58-1.82v1.14l-1.26.83-.6.37.59.41,1.27.91v1.09l-2.53-1.86-2.85,2v-1.12l1.67-1.1.45-.3-2.12-1.41Z" transform="translate(-253.64 -379.19)" style="fill:#040000"/><path d="M334.31,391.27h5.38v.92h-5.38Zm6.38,0h1.05v.92h-1.05Z" transform="translate(-253.64 -379.19)" style="fill:#040000"/><path d="M335,402.9a3.67,3.67,0,0,1-.61-1,3.06,3.06,0,0,1-.17-1,1.93,1.93,0,0,1,.43-1.36,1.43,1.43,0,0,1,1.11-.48,1.48,1.48,0,0,1,.72.18,1.61,1.61,0,0,1,.53.47,2.07,2.07,0,0,1,.29.66,5.43,5.43,0,0,1,.14.81,7.83,7.83,0,0,0,.32,1.63H338a1,1,0,0,0,.79-.26,1.5,1.5,0,0,0,.31-1,1.62,1.62,0,0,0-.23-.95,1.39,1.39,0,0,0-.79-.45l.12-.89a2.11,2.11,0,0,1,.92.4,1.63,1.63,0,0,1,.54.8,3.53,3.53,0,0,1,.19,1.23,3.2,3.2,0,0,1-.16,1.12,1.5,1.5,0,0,1-.41.63,1.42,1.42,0,0,1-.62.28,4.93,4.93,0,0,1-.84.05h-1.22a12.4,12.4,0,0,0-1.6.06,2,2,0,0,0-.65.23v-1A1.89,1.89,0,0,1,335,402.9Zm2-.07a6.78,6.78,0,0,1-.34-1.49,3.59,3.59,0,0,0-.19-.8.7.7,0,0,0-.29-.36.84.84,0,0,0-.44-.13.78.78,0,0,0-.6.28,1.14,1.14,0,0,0-.25.81,2,2,0,0,0,.23.94,1.51,1.51,0,0,0,.63.6,2.19,2.19,0,0,0,.92.15Z" transform="translate(-253.64 -379.19)" style="fill:#040000"/><path d="M337,410.64a2.79,2.79,0,0,1,2.22.83,2.49,2.49,0,0,1,.59,1.69,2.44,2.44,0,0,1-.72,1.82,2.78,2.78,0,0,1-2,.7,3.55,3.55,0,0,1-1.64-.31,2.18,2.18,0,0,1-.92-.91,2.62,2.62,0,0,1-.33-1.3,2.41,2.41,0,0,1,.72-1.82A2.89,2.89,0,0,1,337,410.64Zm0,.94a2.31,2.31,0,0,0-1.55.45,1.45,1.45,0,0,0-.51,1.13,1.41,1.41,0,0,0,.52,1.13,2.34,2.34,0,0,0,1.57.45,2.21,2.21,0,0,0,1.51-.45,1.43,1.43,0,0,0,.52-1.13,1.45,1.45,0,0,0-.51-1.13A2.29,2.29,0,0,0,337,411.58Z" transform="translate(-253.64 -379.19)" style="fill:#040000"/></svg>